# xmcd CD database file
#
# Track frame offsets:
#	150
#	17985
#	37322
#	55142
#
# Disc length: 989 seconds
#
# Revision: 0
# Processed by: cddbd v1.5.1PL0 Copyright (c) Steve Scherf et al.
# Submitted via: CDex 1.51
#
DISCID=3303db04
DTITLE=佳原ゆみ - Don't you hold me tight?
DYEAR=2000
DGENRE=JPop
TTITLE0=Don't you hold me tight?
TTITLE1=Love Letter
TTITLE2=Don't you hold me tight?(Instrumental)
TTITLE3=Love Letter(Instrumental)
EXTD=YEAR: 2000
EXTT0=
EXTT1=
EXTT2=
EXTT3=
PLAYORDER=
